<svg xmlns="http://www.w3.org/2000/svg" viewBox="0 0 1280 720" preserveAspectRatio="xMidYMid slice">
  <defs>
    <linearGradient id="bg" x1="0%" y1="0%" x2="100%" y2="100%">
      <stop offset="0%" stop-color="#0f1923"/>
      <stop offset="100%" stop-color="#1a2530"/>
    </linearGradient>
    <radialGradient id="accent" cx="80%" cy="20%" r="60%">
      <stop offset="0%" stop-color="#c9973a" stop-opacity="0.25"/>
      <stop offset="100%" stop-color="#c9973a" stop-opacity="0"/>
    </radialGradient>
    <radialGradient id="green" cx="20%" cy="100%" r="50%">
      <stop offset="0%" stop-color="#0d7a4e" stop-opacity="0.25"/>
      <stop offset="100%" stop-color="#0d7a4e" stop-opacity="0"/>
    </radialGradient>
  </defs>
  <rect width="1280" height="720" fill="url(#bg)"/>
  <rect width="1280" height="720" fill="url(#accent)"/>
  <rect width="1280" height="720" fill="url(#green)"/>

  <!-- Mock dashboard frame -->
  <rect x="120" y="100" width="1040" height="520" rx="14" fill="#ffffff" fill-opacity="0.04" stroke="#ffffff" stroke-opacity="0.12"/>

  <!-- Header bar -->
  <rect x="120" y="100" width="1040" height="56" rx="14" fill="#ffffff" fill-opacity="0.06"/>
  <circle cx="160" cy="128" r="6" fill="#ff5f56"/>
  <circle cx="184" cy="128" r="6" fill="#ffbd2e"/>
  <circle cx="208" cy="128" r="6" fill="#27c93f"/>
  <text x="640" y="134" font-family="ui-monospace, monospace" font-size="13" fill="#8fa3b8" text-anchor="middle" letter-spacing="2">HABITANDO · DEMO</text>

  <!-- Stat cards row -->
  <g transform="translate(160, 200)">
    <rect width="220" height="92" rx="10" fill="#ffffff" fill-opacity="0.06"/>
    <text x="20" y="32" font-family="ui-monospace, monospace" font-size="10" fill="#8fa3b8" letter-spacing="1.5">TOTAL GERAL</text>
    <text x="20" y="68" font-family="serif" font-size="24" fill="#ffffff" font-style="italic">R$ 281.230</text>
    <rect width="220" height="3" fill="#1a56db"/>
  </g>
  <g transform="translate(400, 200)">
    <rect width="220" height="92" rx="10" fill="#ffffff" fill-opacity="0.06"/>
    <text x="20" y="32" font-family="ui-monospace, monospace" font-size="10" fill="#8fa3b8" letter-spacing="1.5">SALDO FINAL</text>
    <text x="20" y="68" font-family="serif" font-size="24" fill="#ffffff" font-style="italic">R$ 338.000</text>
    <rect width="220" height="3" fill="#0d7a4e"/>
  </g>
  <g transform="translate(640, 200)">
    <rect width="220" height="92" rx="10" fill="#ffffff" fill-opacity="0.06"/>
    <text x="20" y="32" font-family="ui-monospace, monospace" font-size="10" fill="#8fa3b8" letter-spacing="1.5">INCC TOTAL</text>
    <text x="20" y="68" font-family="serif" font-size="24" fill="#c9973a" font-style="italic">R$ 94.463</text>
    <rect width="220" height="3" fill="#7c3aed"/>
  </g>
  <g transform="translate(880, 200)">
    <rect width="220" height="92" rx="10" fill="#ffffff" fill-opacity="0.06"/>
    <text x="20" y="32" font-family="ui-monospace, monospace" font-size="10" fill="#8fa3b8" letter-spacing="1.5">TEO TOTAL</text>
    <text x="20" y="68" font-family="serif" font-size="24" fill="#ffffff" font-style="italic">R$ 58.616</text>
    <rect width="220" height="3" fill="#1a56db"/>
  </g>

  <!-- Mock chart -->
  <g transform="translate(160, 320)">
    <rect width="940" height="240" rx="10" fill="#ffffff" fill-opacity="0.04"/>
    <!-- Bars -->
    <g transform="translate(40, 200)">
      <rect x="0"   y="-50"  width="22" height="50"  fill="#1a56db"/>
      <rect x="30"  y="-58"  width="22" height="58"  fill="#1a56db"/>
      <rect x="60"  y="-65"  width="22" height="65"  fill="#1a56db"/>
      <rect x="90"  y="-75"  width="22" height="75"  fill="#1a56db"/>
      <rect x="120" y="-85"  width="22" height="85"  fill="#1a56db"/>
      <rect x="150" y="-90"  width="22" height="90"  fill="#1a56db"/>
      <rect x="180" y="-100" width="22" height="100" fill="#1a56db"/>
      <rect x="210" y="-160" width="22" height="160" fill="#f59e0b"/>
      <rect x="240" y="-115" width="22" height="115" fill="#1a56db"/>
      <rect x="270" y="-120" width="22" height="120" fill="#1a56db"/>
      <rect x="300" y="-128" width="22" height="128" fill="#1a56db"/>
      <rect x="330" y="-132" width="22" height="132" fill="#1a56db"/>
      <rect x="360" y="-136" width="22" height="136" fill="#1a56db"/>
      <rect x="390" y="-140" width="22" height="140" fill="#1a56db"/>
      <rect x="420" y="-145" width="22" height="145" fill="#1a56db"/>
      <rect x="450" y="-148" width="22" height="148" fill="#1a56db"/>
      <rect x="480" y="-152" width="22" height="152" fill="#1a56db"/>
      <rect x="510" y="-155" width="22" height="155" fill="#1a56db"/>
      <rect x="540" y="-160" width="22" height="160" fill="#1a56db"/>
      <rect x="570" y="-180" width="22" height="180" fill="#f59e0b"/>
      <rect x="600" y="-165" width="22" height="165" fill="#1a56db"/>
      <rect x="630" y="-168" width="22" height="168" fill="#1a56db"/>
      <rect x="660" y="-170" width="22" height="170" fill="#1a56db"/>
      <rect x="690" y="-172" width="22" height="172" fill="#1a56db"/>
      <rect x="720" y="-175" width="22" height="175" fill="#1a56db"/>
      <rect x="750" y="-178" width="22" height="178" fill="#1a56db"/>
      <rect x="780" y="-180" width="22" height="180" fill="#1a56db"/>
      <rect x="810" y="-185" width="22" height="185" fill="#1a56db"/>
      <rect x="840" y="-200" width="22" height="200" fill="#f59e0b"/>
      <rect x="870" y="-188" width="22" height="188" fill="#1a56db"/>
    </g>
    <!-- Reference line -->
    <line x1="40" y1="100" x2="900" y2="100" stroke="#b45309" stroke-width="1.5" stroke-dasharray="6 4"/>
    <text x="900" y="98" font-family="ui-monospace, monospace" font-size="10" fill="#b45309" text-anchor="end">Disponível R$ 9.580</text>
  </g>

  <!-- Play hint overlay -->
  <g opacity="0.9">
    <circle cx="640" cy="360" r="56" fill="#c9973a"/>
    <polygon points="624,332 624,388 668,360" fill="#0f1923"/>
  </g>

  <!-- Bottom caption -->
  <text x="640" y="660" font-family="serif" font-size="22" fill="#ffffff" text-anchor="middle">Demonstração em breve</text>
  <text x="640" y="685" font-family="ui-monospace, monospace" font-size="11" fill="#8fa3b8" text-anchor="middle" letter-spacing="2">HABITANDO.APP</text>
</svg>
